<?xml version="1.0" standalone="no"?>
<!DOCTYPE svg PUBLIC "-//W3C//DTD SVG 20010904//EN"
 "http://www.w3.org/TR/2001/REC-SVG-20010904/DTD/svg10.dtd">
<svg version="1.0" xmlns="http://www.w3.org/2000/svg"
 width="150.000000pt" height="150.000000pt" viewBox="0 0 150.000000 150.000000"
 preserveAspectRatio="xMidYMid meet">
<metadata>
Created by potrace 1.11, written by Peter Selinger 2001-2013
</metadata>
<g transform="translate(0.000000,150.000000) scale(0.100000,-0.100000)"
fill="#000000" stroke="none">
<path d="M0 750 l0 -750 750 0 750 0 0 750 0 750 -750 0 -750 0 0 -750z m1007
179 c38 -14 92 -67 109 -106 17 -39 18 -111 3 -150 -14 -38 -56 -81 -101 -104
-33 -17 -60 -19 -230 -19 -216 0 -249 8 -301 69 -83 99 -51 242 68 304 24 13
67 16 227 17 115 0 208 -4 225 -11z"/>
<path d="M550 900 c-117 -70 -118 -239 -4 -306 60 -35 144 -31 197 9 92 70 91
214 -1 285 -48 36 -141 42 -192 12z m160 -12 c33 -17 51 -35 68 -68 27 -55 28
-92 1 -146 -71 -149 -299 -97 -299 68 0 129 117 203 230 146z"/>
</g>
</svg>
